<mxfile host="app.diagrams.net" modified="2023-12-19T09:47:18.480Z" agent="Mozilla/5.0 (Windows NT 10.0; Win64; x64) AppleWebKit/537.36 (KHTML, like Gecko) Chrome/120.0.0.0 Safari/537.36" etag="0GwoWD46tz9f5d-BRTNE" version="22.1.11" type="github">
  <diagram name="第 1 页" id="gh5PI_p-MOkmfYP4QGG6">
    <mxGraphModel dx="1050" dy="569" grid="0" gridSize="10" guides="1" tooltips="1" connect="1" arrows="1" fold="1" page="0" pageScale="1" pageWidth="827" pageHeight="1169" math="0" shadow="0">
      <root>
        <mxCell id="0" />
        <mxCell id="1" parent="0" />
        <mxCell id="ohtwi0VluYz8EV7dMfoW-1" value="NetBIOS Application" style="rounded=0;whiteSpace=wrap;html=1;" vertex="1" parent="1">
          <mxGeometry x="32" y="106" width="534" height="36" as="geometry" />
        </mxCell>
        <mxCell id="ohtwi0VluYz8EV7dMfoW-2" value="NetBIOS API" style="rounded=0;whiteSpace=wrap;html=1;" vertex="1" parent="1">
          <mxGeometry x="32" y="155" width="534" height="36" as="geometry" />
        </mxCell>
        <mxCell id="ohtwi0VluYz8EV7dMfoW-3" value="NetBIOS over TCP/IP" style="rounded=0;whiteSpace=wrap;html=1;align=left;verticalAlign=top;" vertex="1" parent="1">
          <mxGeometry x="32" y="212" width="535" height="91" as="geometry" />
        </mxCell>
        <mxCell id="ohtwi0VluYz8EV7dMfoW-4" value="UDP" style="rounded=1;whiteSpace=wrap;html=1;" vertex="1" parent="1">
          <mxGeometry x="67" y="338" width="258" height="38" as="geometry" />
        </mxCell>
        <mxCell id="ohtwi0VluYz8EV7dMfoW-10" style="edgeStyle=orthogonalEdgeStyle;rounded=0;orthogonalLoop=1;jettySize=auto;html=1;" edge="1" parent="1" source="ohtwi0VluYz8EV7dMfoW-6">
          <mxGeometry relative="1" as="geometry">
            <mxPoint x="121" y="337.3999938964844" as="targetPoint" />
          </mxGeometry>
        </mxCell>
        <mxCell id="ohtwi0VluYz8EV7dMfoW-12" value="UDP 137" style="edgeLabel;html=1;align=center;verticalAlign=middle;resizable=0;points=[];" vertex="1" connectable="0" parent="ohtwi0VluYz8EV7dMfoW-10">
          <mxGeometry x="-0.5606" y="1" relative="1" as="geometry">
            <mxPoint as="offset" />
          </mxGeometry>
        </mxCell>
        <mxCell id="ohtwi0VluYz8EV7dMfoW-6" value="NetBIOS names" style="rounded=0;whiteSpace=wrap;html=1;" vertex="1" parent="1">
          <mxGeometry x="59" y="244" width="124" height="32" as="geometry" />
        </mxCell>
        <mxCell id="ohtwi0VluYz8EV7dMfoW-11" style="edgeStyle=orthogonalEdgeStyle;rounded=0;orthogonalLoop=1;jettySize=auto;html=1;entryX=0.75;entryY=0;entryDx=0;entryDy=0;" edge="1" parent="1" source="ohtwi0VluYz8EV7dMfoW-7" target="ohtwi0VluYz8EV7dMfoW-4">
          <mxGeometry relative="1" as="geometry" />
        </mxCell>
        <mxCell id="ohtwi0VluYz8EV7dMfoW-13" value="UDP&amp;nbsp; 138" style="edgeLabel;html=1;align=center;verticalAlign=middle;resizable=0;points=[];" vertex="1" connectable="0" parent="ohtwi0VluYz8EV7dMfoW-11">
          <mxGeometry x="-0.5968" y="-3" relative="1" as="geometry">
            <mxPoint as="offset" />
          </mxGeometry>
        </mxCell>
        <mxCell id="ohtwi0VluYz8EV7dMfoW-7" value="&lt;font style=&quot;vertical-align: inherit;&quot;&gt;&lt;font style=&quot;vertical-align: inherit;&quot;&gt;NetBIOS datagrams&lt;/font&gt;&lt;/font&gt;" style="rounded=0;whiteSpace=wrap;html=1;" vertex="1" parent="1">
          <mxGeometry x="199" y="241.5" width="124" height="32" as="geometry" />
        </mxCell>
        <mxCell id="ohtwi0VluYz8EV7dMfoW-14" value="TCP" style="rounded=1;whiteSpace=wrap;html=1;" vertex="1" parent="1">
          <mxGeometry x="360" y="338" width="196" height="38" as="geometry" />
        </mxCell>
        <mxCell id="ohtwi0VluYz8EV7dMfoW-17" style="edgeStyle=orthogonalEdgeStyle;rounded=0;orthogonalLoop=1;jettySize=auto;html=1;" edge="1" parent="1" source="ohtwi0VluYz8EV7dMfoW-15" target="ohtwi0VluYz8EV7dMfoW-14">
          <mxGeometry relative="1" as="geometry" />
        </mxCell>
        <mxCell id="ohtwi0VluYz8EV7dMfoW-18" value="UDP/TCP 139" style="edgeLabel;html=1;align=center;verticalAlign=middle;resizable=0;points=[];" vertex="1" connectable="0" parent="ohtwi0VluYz8EV7dMfoW-17">
          <mxGeometry x="-0.5613" y="-2" relative="1" as="geometry">
            <mxPoint as="offset" />
          </mxGeometry>
        </mxCell>
        <mxCell id="ohtwi0VluYz8EV7dMfoW-15" value="NetBIOS sessions" style="rounded=0;whiteSpace=wrap;html=1;" vertex="1" parent="1">
          <mxGeometry x="396" y="244" width="124" height="32" as="geometry" />
        </mxCell>
        <mxCell id="ohtwi0VluYz8EV7dMfoW-19" value="IP V4" style="rounded=0;whiteSpace=wrap;html=1;" vertex="1" parent="1">
          <mxGeometry x="32" y="396" width="534" height="36" as="geometry" />
        </mxCell>
      </root>
    </mxGraphModel>
  </diagram>
</mxfile>
